<svg xmlns="http://www.w3.org/2000/svg" height="800" width="1200" viewBox="-19.356465 -4.679425 167.75603 28.07655"><g fill="none"><path d="M34.695 1.65C36.712.205 39.17.005 40.376.005c3.747 0 6.274 1.642 6.166 4.161h10.89l1.063-1.802h7.18l-1.08 1.829h2.477l-.297.505c1.433-.829 2.865-1.213 4.49-1.17 3.714.096 5.51 3.062 3.954 7.208-.07.182-.14.362-.212.539l7.667-5.432h-5.3l3.41-5.777h15.782l-2.43 4.119c1.12-.46 1.971-.617 3.183-.617 4.048 0 4.841 3.032 4.677 4.726l2.423-4.095h5.786c3.949-.747 4.795 2.36 4.84 2.507 1.898-2.118 4.333-3.271 6.928-3.138 1.98.103 6.605 1.309 2.61 9.492-1.264 2.59-4.164 5.89-8.7 5.643-3.19-.175-4.454-2.345-4.21-4.41l-2.324 3.948-13.24-.004.513-.865c-1.414.925-3.342 1.454-5.138 1.327-2.995-.212-3.76-1.683-4.154-2.978l-1.489 2.517H70.032l.694-1.167c-1.558 1.105-3.377 1.67-5.416 1.561-2.116-.114-4.099-1.118-4.34-3.653l-1.924 3.258h-3.508c-2.511 0-3.375-2.256-3.515-2.699-1.857 2.795-5.252 3.11-6.656 3.11-4.276 0-5.278-2.21-5.405-2.51l-1.24 2.094h-13.96l-.002.003H0L10.541.26h24.988l-.834 1.392z" fill="#FFF"/><path d="M126.816 1.654V1.02h.437c.224 0 .458.043.458.3 0 .315-.243.334-.514.334h-.38zm0 .258h.369l.555.897h.354l-.598-.911c.308-.028.546-.195.546-.557 0-.412-.243-.588-.74-.588h-.792V2.81h.307v-.897zm-1.083-.138c0-.845.637-1.48 1.478-1.48.81 0 1.462.636 1.462 1.48 0 .859-.652 1.489-1.461 1.489-.842 0-1.478-.63-1.478-1.489zm1.478 1.79c.49.001.959-.187 1.303-.524.344-.336.535-.792.529-1.266 0-1.02-.846-1.774-1.831-1.774-1.007 0-1.848.754-1.848 1.774 0 1.035.841 1.79 1.848 1.79zm-5.292.968c3.249.169 3.848 2.741 2.692 5.93a17.13 17.13 0 01-.717 1.696h-6.645c-.418 1.02-.595 1.99-.066 2.09.566.109 1.156-.466 1.78-1.399h4.569c-1.983 3.555-4.631 5.042-7.613 4.887-3.543-.184-3.804-2.863-2.649-6.052 1.615-4.454 4.905-7.347 8.65-7.152zm-1.855 5.881c.558-1.136.79-1.927.089-2.051-.664-.118-1.44.746-2.196 2.051zm-7.754-5.246c1.198.285 2.377 1.999 1.66 3.28l-5.199 8.826h-4.54l4.333-7.344c.18-.328.018-.817-.53-.93-.615-.128-1.026.465-1.326.981l-4.306 7.29h-4.575l7.166-12.104h4.163l-.48.825s1.441-1.343 3.634-.824zm-14.709-.635c3.249.169 4.074 2.741 2.92 5.93-1.915 5.282-5.34 7.46-8.92 7.274-3.543-.184-4.03-2.863-2.875-6.052 1.615-4.454 5.13-7.347 8.875-7.152zm-1.689 6.121c.672-1.265 1.005-2.158.22-2.291-.839-.143-1.846 1.144-2.785 2.91-.672 1.265-.927 2.21-.245 2.34.938.179 1.697-.864 2.81-2.959zm-3.705-5.145L81.182 13.45h6.343l-2.26 3.819H71.756l2.567-4.315 11.406-8.08h-6.637l2.27-3.844H94.85l-2.642 4.477zm-20.846-1.01c3.25.169 4.075 2.734 2.92 5.914-1.913 5.268-5.339 7.44-8.918 7.254-3.542-.184-4.03-2.856-2.875-6.036 1.613-4.443 5.13-7.327 8.873-7.132zm-1.687 6.104c.671-1.26 1.004-2.152.219-2.285-.84-.142-1.847 1.141-2.785 2.902-.672 1.262-.927 2.203-.244 2.334.937.178 1.697-.862 2.81-2.951zm-8.851-1.965l-2.948 4.986c-.042.085-.022.18.014.272.067.148.25.122.41.122h2.092l-1.92 3.253h-2.773c-1.05 0-1.635-.349-2.19-1.046-.778-.961-.827-2.025-.294-2.975l5.856-9.92h4.888l-1.08 1.83h2.48L63.31 8.636h-2.487zM52.44 5.159h4.536l-5.668 9.628-.009.008c-1.686 2.806-5.264 3.004-6.97 2.797-3-.364-4.214-2.014-3.29-3.66-.003-.005 5.18-8.773 5.18-8.773h4.556l-4.583 7.693c-.217.383-.532.944.221 1.087.603.116.997-.073 1.377-.738zM41.558 1.04c3.6.438 4.715 2.397 3.556 4.47l-6.967 11.754h-4.892l2.112-3.572H32.97l-2.11 3.572h-4.928l7.562-12.798c1.852-3.427 6.076-3.668 8.064-3.427zm-1.926 5.437c.45-.727.215-1.088-.51-1.155-.866-.08-1.416.348-1.701.834l-2.16 3.664h2.4l1.972-3.343z" fill="#D52B1E"/><path d="M32.391 1.036l-9.583 16.226h1.17l9.588-16.226h-1.174zm-1.301 0H29.1l-9.588 16.226h1.986l3.456-5.833zm-7.59 0l-9.59 16.226h4.296l9.6-16.226zm-11.643 0L2.269 17.262h10.468L22.33 1.036z" fill="#F37100"/></g></svg>